<svg width="720" height="720" viewBox="0 0 720 720" fill="none" xmlns="http://www.w3.org/2000/svg">
<path d="M568 720C539.111 720 514.556 709.5 494.333 688.5C474.111 667.5 464 642 464 612C464 607.8 464.289 603.444 464.867 598.932C465.444 594.444 466.311 590.4 467.467 586.8L223.067 439.2C213.244 448.2 202.267 455.244 190.133 460.332C178 465.444 165.289 468 152 468C123.111 468 98.5556 457.5 78.3333 436.5C58.1111 415.5 48 390 48 360C48 330 58.1111 304.5 78.3333 283.5C98.5556 262.5 123.111 252 152 252C165.289 252 178 254.544 190.133 259.632C202.267 264.744 213.244 271.8 223.067 280.8L467.467 133.2C466.311 129.6 465.444 125.556 464.867 121.068C464.289 116.556 464 112.2 464 108C464 78 474.111 52.5 494.333 31.5C514.556 10.5 539.111 0 568 0C596.889 0 621.444 10.5 641.667 31.5C661.889 52.5 672 78 672 108C672 138 661.889 163.5 641.667 184.5C621.444 205.5 596.889 216 568 216C554.711 216 542 213.444 529.867 208.332C517.733 203.244 506.756 196.2 496.933 187.2L252.533 334.8C253.689 338.4 254.556 342.444 255.133 346.932C255.711 351.444 256 355.8 256 360C256 364.2 255.711 368.544 255.133 373.032C254.556 377.544 253.689 381.6 252.533 385.2L496.933 532.8C506.756 523.8 517.733 516.744 529.867 511.632C542 506.544 554.711 504 568 504C596.889 504 621.444 514.5 641.667 535.5C661.889 556.5 672 582 672 612C672 642 661.889 667.5 641.667 688.5C621.444 709.5 596.889 720 568 720ZM568 144C577.822 144 586.05 140.556 592.683 133.668C599.339 126.756 602.667 118.2 602.667 108C602.667 97.8 599.339 89.244 592.683 82.332C586.05 75.444 577.822 72 568 72C558.178 72 549.95 75.444 543.317 82.332C536.661 89.244 533.333 97.8 533.333 108C533.333 118.2 536.661 126.756 543.317 133.668C549.95 140.556 558.178 144 568 144ZM152 396C161.822 396 170.061 392.544 176.717 385.632C183.35 378.744 186.667 370.2 186.667 360C186.667 349.8 183.35 341.244 176.717 334.332C170.061 327.444 161.822 324 152 324C142.178 324 133.939 327.444 127.283 334.332C120.65 341.244 117.333 349.8 117.333 360C117.333 370.2 120.65 378.744 127.283 385.632C133.939 392.544 142.178 396 152 396ZM568 648C577.822 648 586.05 644.544 592.683 637.632C599.339 630.744 602.667 622.2 602.667 612C602.667 601.8 599.339 593.256 592.683 586.368C586.05 579.456 577.822 576 568 576C558.178 576 549.95 579.456 543.317 586.368C536.661 593.256 533.333 601.8 533.333 612C533.333 622.2 536.661 630.744 543.317 637.632C549.95 644.544 558.178 648 568 648Z" fill="#FF735B"/>
</svg>
